<svg id="Capa_1" enable-background="new 0 0 512.086 512.086" height="512" viewBox="0 0 512.086 512.086" width="512" xmlns="http://www.w3.org/2000/svg"><g><g><path d="m409.341 497.843v-146.041h-23.509c-1.924 0-3.012-2.206-1.84-3.732l51.724-67.398c.929-1.21 2.752-1.21 3.681 0l51.724 67.398c1.171 1.526.083 3.732-1.84 3.732h-23.511v145.964c0 3.713-3.006 6.725-6.719 6.731l-42.966.077c-3.723.007-6.744-3.009-6.744-6.731z" fill="#ade194"/><path d="m46.316 462.121v-183.428h-23.509c-1.924 0-3.012-2.206-1.84-3.732l51.724-67.398c.929-1.21 2.752-1.21 3.681 0l51.724 67.398c1.171 1.526.083 3.732-1.84 3.732h-23.509v152.684 30.744c0 2.175-1.763 3.938-3.938 3.938h-48.555c-2.175 0-3.938-1.763-3.938-3.938z" fill="#ade194"/><path d="m385.584 223.455v-143.918h23.51c1.924 0 3.012-2.206 1.84-3.732l-51.724-67.398c-.929-1.21-2.752-1.21-3.681 0l-51.724 67.397c-1.171 1.526-.083 3.732 1.84 3.732h23.509v59.535 93.148h47.663c4.842.002 8.767-3.923 8.767-8.764z" fill="#80d261"/><path d="m364.369 495.992v-120.773c0-3.016-1.34-5.876-3.657-7.807l-55.835-46.53v-31.86h-103.018v31.86l-55.835 46.53c-2.317 1.931-3.657 4.791-3.657 7.807v120.773c0 4.691 3.803 8.494 8.494 8.494h205.015c4.691 0 8.493-3.803 8.493-8.494z" fill="#fef48b"/><path d="m306.366 322.122-1.489-1.24v-27.011-4.849h-103.018v31.86l-55.835 46.53c-2.317 1.931-3.657 4.791-3.657 7.807v120.773c0 4.691 3.803 8.494 8.494 8.494h37.713c-.527-1.106-.831-2.338-.831-3.645v-120.773c0-3.016 1.34-5.876 3.657-7.807l33.48-27.901c6.656-5.546 15.13-8.411 23.787-8.072 1.394.055 2.794.082 4.201.082 19.458.001 37.727-5.185 53.498-14.248z" fill="#fef056"/><circle cx="252.868" cy="228.651" fill="#fef48b" r="87.72"/><path d="m202.292 228.651c0-42.073 29.645-77.231 69.17-85.752-5.987-1.291-12.22-1.968-18.593-1.968-48.446 0-87.72 39.273-87.72 87.72s39.273 87.72 87.72 87.72c6.373 0 12.612-.679 18.599-1.969-39.526-8.521-69.176-43.677-69.176-85.751z" fill="#fef056"/></g><g><path d="m189.494 244.024c7.12 29.349 33.181 49.847 63.374 49.847s56.254-20.498 63.374-49.847c.978-4.025-1.494-8.081-5.52-9.057-4.031-.975-8.08 1.496-9.057 5.52-5.483 22.6-25.55 38.384-48.798 38.384s-43.314-15.784-48.798-38.384c-.976-4.025-5.029-6.495-9.057-5.52-4.024.977-6.495 5.032-5.518 9.057z"/><path d="m224.225 207.876c4.143 0 7.5-3.358 7.5-7.5v-7.983c0-4.142-3.357-7.5-7.5-7.5s-7.5 3.358-7.5 7.5v7.983c0 4.143 3.357 7.5 7.5 7.5z"/><path d="m290.012 200.376v-7.983c0-4.142-3.357-7.5-7.5-7.5s-7.5 3.358-7.5 7.5v7.983c0 4.142 3.357 7.5 7.5 7.5s7.5-3.357 7.5-7.5z"/><path d="m156.692 348.759-9.496 7.912c-7.835 6.53-12.329 16.125-12.329 26.324v121.49c0 4.142 3.357 7.5 7.5 7.5s7.5-3.358 7.5-7.5v-121.49c0-5.735 2.526-11.129 6.932-14.801l9.495-7.912c3.183-2.651 3.612-7.381.961-10.563s-7.382-3.613-10.563-.96z"/><path d="m187.743 376.824c-4.143 0-7.5 3.358-7.5 7.5v120.263c0 4.142 3.357 7.5 7.5 7.5s7.5-3.358 7.5-7.5v-120.263c0-4.142-3.357-7.5-7.5-7.5z"/><path d="m359.54 356.671-47.162-39.302v-14.444c21.755-17.466 35.71-44.269 35.71-74.274 0-52.504-42.716-95.22-95.22-95.22-15.095 0-30.126 3.625-43.468 10.481-3.685 1.894-5.136 6.415-3.243 10.099 1.894 3.684 6.415 5.135 10.099 3.243 11.392-5.854 23.71-8.823 36.612-8.823 44.233 0 80.22 35.986 80.22 80.22s-35.986 80.22-80.22 80.22-80.22-35.986-80.22-80.22c0-19.606 7.153-38.483 20.144-53.152 2.746-3.101 2.458-7.841-.644-10.587-3.101-2.747-7.841-2.458-10.587.643-15.421 17.416-23.913 39.823-23.913 63.097 0 30.463 14.382 57.629 36.71 75.07v13.647l-12.187 10.155c-3.182 2.652-3.611 7.381-.96 10.563 1.483 1.78 3.616 2.699 5.766 2.699 1.692 0 3.396-.57 4.798-1.738l14.885-12.404c1.71-1.425 2.698-3.536 2.698-5.762v-7.548c13.049 6.732 27.843 10.537 43.51 10.537 16.069 0 31.218-4.007 44.51-11.065v8.076c0 2.226.988 4.336 2.698 5.762l49.86 41.551c4.406 3.671 6.933 9.066 6.933 14.801v121.49c0 4.142 3.357 7.5 7.5 7.5s7.5-3.358 7.5-7.5v-121.49c0-10.2-4.494-19.795-12.329-26.325z"/><path d="m318.993 376.824c-4.143 0-7.5 3.358-7.5 7.5v120.263c0 4.142 3.357 7.5 7.5 7.5s7.5-3.358 7.5-7.5v-120.263c0-4.142-3.357-7.5-7.5-7.5z"/><path d="m497.07 343.503-51.722-67.394c-1.873-2.443-4.712-3.845-7.791-3.845-.001 0-.001 0-.002 0-3.078 0-5.918 1.4-7.791 3.842l-51.724 67.397c-2.293 2.988-2.683 6.943-1.017 10.321s5.041 5.477 8.808 5.477h16.009v80.913c0 4.142 3.357 7.5 7.5 7.5s7.5-3.358 7.5-7.5v-88.413c0-4.142-3.357-7.5-7.5-7.5h-13.004l41.219-53.709 41.219 53.709h-13.004c-4.143 0-7.5 3.358-7.5 7.5v152.684c0 4.142 3.357 7.5 7.5 7.5s7.5-3.358 7.5-7.5v-145.183h16.01c3.767 0 7.142-2.099 8.808-5.477 1.665-3.378 1.275-7.333-1.018-10.322z"/><path d="m409.341 464.678c-4.143 0-7.5 3.358-7.5 7.5v32.409c0 4.142 3.357 7.5 7.5 7.5s7.5-3.358 7.5-7.5v-32.409c0-4.142-3.358-7.5-7.5-7.5z"/><path d="m134.045 270.395-51.725-67.398c-1.873-2.441-4.713-3.841-7.789-3.841-3.077 0-5.917 1.4-7.791 3.842l-51.723 67.396c-2.294 2.988-2.685 6.943-1.019 10.322 1.665 3.378 5.04 5.478 8.808 5.478h16.01v179.866c0 4.142 3.357 7.5 7.5 7.5s7.5-3.358 7.5-7.5v-187.367c0-4.142-3.357-7.5-7.5-7.5h-13.003l41.219-53.709 41.218 53.709h-13.004c-4.143 0-7.5 3.358-7.5 7.5v152.684c0 4.142 3.357 7.5 7.5 7.5s7.5-3.358 7.5-7.5v-145.184h16.009c3.767 0 7.142-2.098 8.808-5.476s1.275-7.333-1.018-10.322z"/><path d="m305.646 87.037h16.01v52.036c0 4.142 3.357 7.5 7.5 7.5s7.5-3.358 7.5-7.5v-59.536c0-4.142-3.357-7.5-7.5-7.5h-13.004l41.218-53.709 41.219 53.709h-13.004c-4.143 0-7.5 3.358-7.5 7.5v152.684c0 4.142 3.357 7.5 7.5 7.5s7.5-3.358 7.5-7.5v-145.184h16.009c3.767 0 7.142-2.098 8.808-5.476s1.276-7.333-1.017-10.322l-51.726-67.398c-1.873-2.441-4.711-3.841-7.787-3.841-.001 0-.002 0-.003 0-3.075 0-5.914 1.398-7.791 3.841l-51.722 67.396c-2.294 2.988-2.685 6.943-1.019 10.322s5.041 5.478 8.809 5.478z"/></g></g></svg>