<svg id="Capa_1" enable-background="new 0 0 512 512" height="512" viewBox="0 0 512 512" width="512" xmlns="http://www.w3.org/2000/svg"><g><g><path d="m90 15v302h391v-302z" fill="#e6f7ff"/></g><path d="m286 15h195v302h-195z" fill="#cef"/><g><g><g><path d="m497 332h-452c-8.291 0-15-6.709-15-15s6.709-15 15-15h452c8.291 0 15 6.709 15 15s-6.709 15-15 15z" fill="#47568c"/></g></g></g><path d="m497 302h-211v30h211c8.291 0 15-6.709 15-15s-6.709-15-15-15z" fill="#29376d"/><g id="Encourage_training_2_"><g><path d="m286 272h-45c-8.284 0-15-6.716-15-15v-60c0-8.284 6.716-15 15-15h60c8.284 0 15 6.716 15 15v45c0 16.569-13.431 30-30 30z" fill="#f9b"/></g></g><g><path d="m90 182c-33.076 0-60-26.909-60-60s26.924-60 60-60 60 26.909 60 60-26.924 60-60 60z" fill="#9ef"/></g><g><path d="m120 512h-60c-7.705 0-14.15-5.845-14.912-13.506l-13.652-136.494h-16.436c-8.291 0-15-6.709-15-15v-75c0-49.629 40.371-90 90-90s90 40.371 90 90v75c0 8.291-6.709 15-15 15h-16.436l-13.652 136.494c-.762 7.661-7.207 13.506-14.912 13.506z" fill="#9ef"/></g><g><g><g><path d="m497 30h-422c-8.291 0-15-6.709-15-15s6.709-15 15-15h422c8.291 0 15 6.709 15 15s-6.709 15-15 15z" fill="#47568c"/></g></g></g><path d="m120 512c7.705 0 14.15-5.845 14.912-13.506l13.652-136.494h16.436c8.291 0 15-6.709 15-15v-75c0-49.629-40.371-90-90-90v330z" fill="#80bfff"/><path d="m150 122c0-33.091-26.924-60-60-60v120c33.076 0 60-26.909 60-60z" fill="#80bfff"/><path d="m497 0h-211v30h211c8.291 0 15-6.709 15-15s-6.709-15-15-15z" fill="#29376d"/><g><g><path d="m346 272h-60v-135c0-8.284 6.716-15 15-15h60c8.284 0 15 6.716 15 15v105c0 16.569-13.431 30-30 30z" fill="#80bfff"/></g></g><g><g><path d="m391 272h-45v-195c0-8.284 6.716-15 15-15h30c8.284 0 15 6.716 15 15v180c0 8.284-6.716 15-15 15z" fill="#fabe2c"/></g></g></g></svg>